<?xml version="1.0" standalone="no"?>
<!DOCTYPE svg PUBLIC "-//W3C//DTD SVG 20010904//EN"
 "http://www.w3.org/TR/2001/REC-SVG-20010904/DTD/svg10.dtd">
<svg version="1.0" xmlns="http://www.w3.org/2000/svg"
 width="1000.000000pt" height="1000.000000pt" viewBox="0 0 1000.000000 1000.000000"
 preserveAspectRatio="xMidYMid meet">

<g transform="translate(0.000000,1000.000000) scale(0.100000,-0.100000)"
fill="#000000" stroke="none">
<path d="M5580 6773 c-25 -2 -92 -10 -150 -18 -57 -9 -129 -13 -160 -10 -62 7
-92 -5 -123 -47 -23 -31 -39 -124 -25 -150 12 -24 59 -23 106 1 74 38 358 101
393 88 8 -3 -8 -14 -36 -27 -210 -92 -451 -240 -616 -378 -128 -108 -150 -125
-155 -120 -2 3 1 27 7 54 29 123 11 304 -41 404 -42 79 -130 148 -228 176
-225 66 -605 -72 -832 -301 -35 -36 -70 -65 -77 -65 -7 0 -16 12 -19 28 -4 15
-20 54 -35 88 -51 108 -157 183 -279 198 -59 7 -199 -13 -285 -41 -310 -100
-643 -344 -958 -703 -56 -63 -104 -117 -107 -120 -3 -3 -37 -45 -76 -95 -234
-298 -416 -584 -605 -954 -81 -157 -78 -193 16 -280 53 -49 102 -72 134 -64
22 6 71 77 71 104 0 14 71 166 221 474 77 159 143 276 232 410 204 308 532
675 755 843 211 159 482 264 600 233 40 -11 86 -53 119 -111 23 -40 53 -136
53 -172 0 -14 -28 -61 -68 -113 -173 -230 -279 -409 -312 -527 -7 -26 -10 -75
-8 -108 5 -70 22 -93 109 -146 96 -58 175 -45 266 44 121 117 187 321 202 628
l7 141 44 59 c70 94 278 296 359 349 89 58 216 105 288 105 70 0 157 -34 203
-80 44 -44 60 -98 60 -204 0 -92 -11 -147 -57 -296 -37 -116 -55 -144 -122
-190 -17 -12 -24 -31 -32 -84 -11 -82 -8 -87 69 -117 48 -18 72 -20 147 -17
50 3 101 10 113 17 12 6 33 34 47 61 40 80 178 244 334 401 223 222 393 350
598 450 56 27 104 49 107 49 19 0 -4 -24 -77 -83 -46 -36 -96 -85 -113 -109
-16 -24 -32 -45 -36 -48 -16 -12 -69 -143 -74 -183 -7 -51 9 -97 34 -97 9 0
28 -7 41 -16 28 -20 35 -13 50 56 6 30 22 78 35 105 26 58 162 206 239 262 29
21 57 41 62 46 6 4 43 30 83 58 39 28 72 53 72 57 -1 4 -22 22 -48 41 -43 32
-54 35 -147 42 -99 8 -289 9 -375 2z"/>
<path d="M8234 6571 c-80 -58 -159 -146 -297 -331 -48 -63 -91 -121 -97 -127
-11 -13 -140 -19 -140 -7 0 6 40 66 50 74 3 3 28 34 55 70 118 155 135 172
160 166 50 -13 27 85 -25 111 -49 25 -77 16 -131 -39 -66 -69 -181 -212 -253
-315 -52 -74 -61 -83 -89 -83 -18 0 -92 -9 -165 -20 -74 -11 -135 -20 -136
-20 -2 0 -6 33 -9 73 -10 136 -91 259 -189 289 -46 14 -118 -6 -126 -34 -4
-17 -35 -30 -102 -43 -96 -19 -248 -116 -381 -243 -85 -80 -219 -238 -219
-258 0 -5 -13 -24 -29 -43 -25 -30 -48 -41 -172 -82 -178 -57 -428 -146 -532
-188 -86 -34 -87 -34 -87 -23 0 23 268 325 366 411 101 89 138 96 266 48 l67
-25 -6 32 c-13 68 -56 119 -110 131 -76 16 -235 -52 -383 -162 -150 -113 -364
-337 -490 -516 l-55 -78 -137 -69 c-76 -39 -138 -65 -138 -58 0 30 194 258
308 361 92 84 129 123 135 146 6 25 -47 141 -65 141 -7 0 -76 -62 -153 -137
-237 -231 -469 -406 -658 -499 -110 -54 -183 -70 -217 -49 -34 21 10 164 77
253 36 48 126 112 167 119 21 3 35 11 33 17 -5 16 -108 83 -137 89 -14 3 -41
-1 -60 -9 -141 -59 -330 -409 -330 -611 0 -55 4 -67 25 -88 47 -47 135 -25
387 97 65 32 118 60 118 62 0 6 -94 -30 -132 -50 -35 -19 -41 -18 -33 8 7 20
5 21 -49 14 -64 -7 -75 6 -18 24 20 7 51 20 67 29 50 29 77 32 82 11 5 -17 7
-17 71 1 87 25 200 68 208 80 7 12 37 12 32 0 -6 -17 -81 -102 -133 -152 -29
-27 -128 -95 -221 -150 -93 -56 -223 -138 -289 -182 -111 -74 -393 -281 -405
-297 -3 -3 -37 -32 -77 -63 -246 -195 -532 -497 -622 -658 l-23 -41 23 12 c13
7 32 19 41 27 10 9 27 13 40 10 39 -10 65 3 93 45 56 85 329 357 536 534 169
144 403 320 596 448 145 95 183 116 183 101 0 -2 -35 -51 -78 -107 -42 -57
-84 -113 -92 -124 -36 -52 -220 -285 -277 -351 -35 -40 -63 -74 -63 -77 0 -3
19 2 42 10 23 8 50 12 60 8 17 -5 97 16 138 36 27 13 284 361 480 650 54 79
58 82 178 150 67 39 129 70 136 70 11 0 7 -16 -15 -66 -17 -36 -28 -68 -25
-71 3 -3 45 16 95 41 49 25 95 46 100 46 22 0 10 -16 -29 -38 -22 -12 -40 -29
-40 -36 0 -7 -10 -21 -22 -30 -14 -9 -17 -15 -8 -14 8 2 17 -2 19 -7 4 -12
-127 -60 -137 -50 -4 4 -1 10 6 12 15 6 16 23 1 23 -28 0 -79 -187 -79 -292 0
-122 39 -190 127 -219 48 -15 213 -7 278 15 137 46 307 159 426 284 157 164
165 181 51 104 -81 -56 -109 -69 -198 -92 -44 -11 -101 -35 -128 -51 -131 -81
-382 -191 -341 -150 27 27 366 205 493 259 29 12 109 48 176 78 106 49 126 61
139 90 l16 33 -27 -10 c-14 -6 -30 -15 -34 -21 -3 -7 -28 -17 -55 -24 -84 -23
-89 -19 -43 36 21 24 32 31 38 23 6 -9 24 -7 76 9 61 19 71 25 97 67 102 160
157 378 115 462 -10 19 -12 35 -7 39 19 11 121 43 125 39 3 -3 -4 -31 -15 -63
-10 -32 -24 -88 -30 -124 -20 -112 4 -292 39 -292 8 0 52 12 98 26 l84 26 -29
33 c-43 50 -54 94 -49 204 5 104 36 214 68 242 10 9 92 40 182 68 90 29 215
70 278 91 142 47 311 92 318 85 7 -7 -15 -79 -50 -159 -42 -97 -31 -102 85
-44 l93 46 26 78 c15 44 29 91 32 106 3 15 14 29 24 32 52 15 264 57 268 53 3
-2 -54 -95 -126 -206 -142 -220 -353 -572 -380 -636 -10 -22 -20 -55 -24 -73
-8 -45 11 -38 44 16 59 97 274 393 385 532 20 25 83 104 138 176 201 258 182
240 261 252 38 6 73 9 78 6 7 -5 -19 -46 -102 -159 -59 -81 -170 -244 -170
-251 0 -3 -11 -20 -24 -37 -13 -18 -42 -65 -64 -105 -65 -115 -77 -195 -18
-117 15 19 40 49 57 67 31 33 561 668 694 831 39 47 87 96 109 109 21 13 52
35 69 51 16 15 38 27 48 27 26 0 24 32 -3 57 -22 20 -85 43 -119 43 -9 0 -34
-13 -55 -29z m-1335 -394 c45 -30 73 -81 75 -134 1 -33 -2 -38 -29 -45 -16 -4
-120 -30 -230 -57 -110 -28 -252 -66 -315 -85 -63 -20 -118 -32 -123 -27 -9 9
45 74 133 161 85 84 115 108 188 147 141 78 226 89 301 40z m-1194 -722 c18
-18 25 -35 25 -65 0 -48 -49 -182 -85 -230 -14 -19 -25 -37 -25 -42 0 -7 -123
-172 -146 -195 -7 -7 -10 -22 -7 -34 5 -19 3 -21 -14 -17 -13 4 -30 -3 -46
-18 -82 -75 -228 -151 -313 -161 -74 -9 -144 43 -144 107 0 28 52 175 89 254
50 104 134 246 146 246 10 0 166 68 300 130 121 57 182 64 220 25z m-635 -245
c0 -13 -7 -20 -20 -20 -22 0 -28 25 -7 33 22 10 27 7 27 -13z m-1010 -179 c0
-10 -45 -41 -60 -41 -19 0 -10 31 13 40 29 12 47 12 47 1z m-159 -16 c0 -5 -9
-11 -21 -13 -20 -3 -27 8 -13 22 10 9 34 3 34 -9z m1006 -141 c7 -18 -4 -31
-32 -36 -12 -2 -21 4 -23 16 -7 32 43 50 55 20z m-107 -113 c0 -13 -26 -32
-33 -24 -14 13 -6 33 13 33 11 0 20 -4 20 -9z"/>
<path d="M8115 6028 c-83 -87 -201 -259 -607 -893 -82 -127 -85 -135 -65 -135
13 0 117 118 117 133 0 3 -10 3 -21 0 -17 -5 -20 -3 -13 9 9 15 73 73 126 113
14 11 74 83 134 160 145 188 345 437 404 505 38 44 55 56 77 55 33 0 43 18 32
59 -11 38 -36 55 -84 56 -35 0 -45 -6 -100 -62z"/>
<path d="M8628 5820 c-20 -11 -66 -53 -103 -93 -57 -63 -218 -284 -292 -400
l-24 -39 33 7 c67 15 95 34 173 121 200 223 282 307 315 323 31 14 35 20 35
56 l0 40 -50 2 c-34 2 -62 -4 -87 -17z m-323 -470 c8 -13 -37 -31 -49 -20 -4
5 -5 13 -2 19 9 14 43 14 51 1z"/>
<path d="M8222 5673 c-31 -15 -90 -76 -186 -193 -24 -30 -43 -56 -42 -58 2 -2
48 17 103 41 77 35 109 55 148 96 28 29 62 59 78 67 38 20 34 41 -10 53 -49
14 -52 14 -91 -6z m-12 -128 c0 -7 -7 -16 -15 -19 -20 -7 -33 23 -14 34 16 10
29 4 29 -15z"/>
<path d="M7020 5645 c-6 -8 -10 -21 -8 -31 2 -11 7 -6 15 15 13 34 11 38 -7
16z"/>
<path d="M6771 5513 c-99 -131 -246 -265 -348 -317 -18 -9 -33 -22 -33 -29 0
-22 -16 -38 -33 -31 -9 3 -17 11 -17 18 0 7 -22 11 -64 10 -74 -1 -177 -39
-173 -64 1 -8 -6 -16 -15 -18 -13 -2 -16 1 -12 12 5 13 2 14 -25 5 -17 -6 -31
-12 -31 -13 0 -2 8 -12 18 -22 33 -38 81 -64 138 -77 114 -26 244 12 399 116
123 83 313 288 394 426 l30 51 -34 0 c-19 0 -59 -11 -90 -24 -43 -20 -55 -22
-55 -10 0 7 5 14 10 14 6 0 10 5 10 10 0 24 -22 6 -69 -57z m55 -51 c-8 -13
-46 -23 -46 -12 0 17 33 41 42 32 6 -6 8 -15 4 -20z m-626 -361 c0 -11 -5 -23
-11 -27 -15 -9 -33 12 -26 30 9 23 37 20 37 -3z"/>
<path d="M8080 5394 c-70 -45 -125 -74 -143 -74 -7 0 -31 -25 -53 -56 -21 -30
-54 -75 -71 -99 -18 -24 -33 -46 -33 -49 0 -2 -17 -31 -39 -63 -21 -32 -57
-93 -81 -137 -81 -148 -16 -81 370 379 46 55 90 108 98 118 22 25 13 22 -48
-19z m-132 -141 c-4 -20 -68 -38 -68 -19 0 19 22 36 48 36 17 0 23 -5 20 -17z"/>
<path d="M7324 5312 c-76 -42 -112 -90 -93 -125 12 -21 51 -22 95 -1 53 25 61
40 33 64 l-24 20 23 6 c16 5 22 13 20 27 -4 27 -17 29 -54 9z"/>
<path d="M8196 5194 c-24 -29 -41 -41 -46 -34 -5 8 -10 7 -17 -2 -20 -24 -103
-170 -103 -180 0 -5 28 24 63 65 34 41 86 102 115 136 30 33 48 61 40 61 -7
-1 -31 -21 -52 -46z"/>
<path d="M6821 5016 c-7 -9 -32 -21 -55 -27 -37 -11 -39 -13 -16 -18 l24 -7
-24 -17 c-13 -9 -32 -17 -42 -17 -10 0 -18 -3 -18 -7 0 -23 37 -107 48 -111 8
-2 36 19 63 47 51 53 59 83 40 150 -6 21 -8 22 -20 7z"/>
<path d="M7325 4922 c-14 -7 -26 -22 -26 -35 -4 -63 12 -79 64 -67 55 12 88
46 85 86 -2 31 -3 32 -50 30 -27 0 -60 -7 -73 -14z"/>
<path d="M7923 4890 c-40 -24 -43 -56 -8 -72 45 -20 95 21 95 78 0 21 -49 18
-87 -6z"/>
<path d="M7541 4755 c-41 -14 -81 -61 -81 -92 0 -13 11 -29 24 -38 22 -15 27
-15 55 -1 17 9 35 25 41 35 12 23 14 112 3 110 -5 -1 -23 -7 -42 -14z"/>
<path d="M3915 4169 c-38 -15 -102 -37 -141 -48 -68 -20 -73 -24 -163 -121
-68 -74 -87 -100 -73 -100 10 0 36 11 56 25 42 29 64 32 73 10 7 -20 -26 -57
-45 -50 -7 3 -32 -4 -55 -14 -23 -10 -60 -24 -82 -31 -37 -12 -91 -52 -170
-126 -60 -56 -201 -158 -250 -180 -66 -31 -109 -31 -140 1 -14 13 -25 31 -25
39 0 12 -7 14 -31 9 -31 -6 -32 -5 -25 20 6 26 5 27 -34 27 -22 0 -43 1 -46 3
-9 3 -60 -95 -66 -128 -10 -47 46 -214 83 -247 75 -71 243 -5 484 189 151 122
489 458 615 613 25 30 55 66 68 80 21 22 47 62 40 59 -2 -1 -34 -14 -73 -30z
m-235 -162 c0 -19 -10 -27 -26 -20 -21 8 -17 33 6 33 11 0 20 -6 20 -13z m17
-54 c-3 -3 -11 -2 -17 2 -8 5 -7 11 2 22 12 15 13 14 16 -1 2 -10 1 -20 -1
-23z m-797 -441 c0 -13 -12 -22 -37 -30 -45 -14 -50 -10 -29 23 20 30 66 35
66 7z"/>
</g>
</svg>
